<svg width="140" height="50" viewBox="0 0 140 50" fill="none" xmlns="http://www.w3.org/2000/svg">
<path d="M134.687 0.802704H5.3132C3.19673 0.802704 1.48099 2.51844 1.48099 4.63491V45.3651C1.48099 47.4816 3.19673 49.1973 5.3132 49.1973H134.687C136.803 49.1973 138.519 47.4816 138.519 45.3651V4.63491C138.519 2.51844 136.803 0.802704 134.687 0.802704Z" stroke="#FAFAFA" stroke-width="0.851602"/>
<path fill-rule="evenodd" clip-rule="evenodd" d="M103.484 24.1064H98.6565V31.4352H103.484C103.484 31.4352 106.264 30.9624 106.264 27.7708C106.264 24.5793 103.484 24.1064 103.484 24.1064ZM102.87 25.8792H99.5932V29.8122H102.87C102.87 29.8122 104.362 29.8122 104.362 27.8457C104.362 25.8792 102.87 25.8792 102.87 25.8792Z" fill="#FAFAFA"/>
<path d="M99.9339 24.1064H98.2307V36.0288H99.9339V24.1064Z" fill="#FAFAFA"/>
<path d="M108.96 24.1064H107.257V36.0288H108.96V24.1064Z" fill="#FAFAFA"/>
<path fill-rule="evenodd" clip-rule="evenodd" d="M113.511 28.1093C111.128 28.1093 110.335 29.7459 110.335 29.7459L111.753 30.5844C111.753 30.5844 112.096 29.7459 113.647 29.7459C114.775 29.7459 115.152 30.5984 115.273 31.0623V31.4128C114.779 31.1723 113.708 30.7935 112.179 31.0208C110.106 31.3291 110.147 33.2041 110.154 33.5C110.154 33.5122 110.154 33.5218 110.154 33.5284C110.154 33.6954 110.156 36.1717 112.869 36.0023C114.054 35.9283 114.804 35.5639 115.273 35.1769V36.0254H116.976V30.8503L116.977 30.8403C116.977 30.1523 116.472 28.1093 113.511 28.1093ZM111.756 33.5818C111.87 31.7385 115.151 32.6229 115.151 32.6229C115.151 32.6229 115.196 32.8178 115.196 33.2333C114.904 34.54 111.642 35.4251 111.756 33.5818Z" fill="#FAFAFA"/>
<path fill-rule="evenodd" clip-rule="evenodd" d="M121.024 33.5536L118.839 28.3642H117.136L120.173 35.5762L118.584 39.3498H120.287L124.895 28.4054H123.192L121.024 33.5536Z" fill="#FAFAFA"/>
<path fill-rule="evenodd" clip-rule="evenodd" d="M90.8154 28.1093C93.6709 28.1093 94.4177 31.1517 94.4177 31.1517L89.0309 33.3779C89.0309 33.3779 89.3788 34.6093 90.9984 34.6175C92.2666 34.624 92.9824 33.4935 92.9824 33.4935L94.3491 34.419C94.3491 34.419 93.2463 36.2026 90.9876 36.2026C88.212 36.2026 86.9895 33.7756 86.9895 32.1994C86.9895 30.6808 87.9599 28.1093 90.8154 28.1093ZM90.651 29.6804C91.6904 29.4902 92.3681 30.5214 92.3681 30.5214L88.729 32.0067C88.729 32.0067 88.4524 30.0826 90.651 29.6804Z" fill="#FAFAFA"/>
<path d="M86.2367 24.1064H84.4348V36.0038H86.2367V24.1064Z" fill="#FAFAFA"/>
<path fill-rule="evenodd" clip-rule="evenodd" d="M81.5512 29.1104V28.3679L83.2169 28.3823V35.8892C83.2169 37.8071 82.075 39.8318 79.3866 39.8318C76.6983 39.8318 75.8301 37.4499 75.8301 37.4499L77.3598 36.8065C77.3598 36.8065 77.8264 38.2745 79.4661 38.2745C81.3334 38.2745 81.5514 36.5756 81.5514 35.9941V35.1794C81.5514 35.1794 80.9053 36.1907 79.3005 36.1907C77.5606 36.1907 75.4929 34.6999 75.4929 32.1585C75.4929 29.6171 77.4399 28.1635 79.3207 28.1106C80.8271 28.0682 81.5512 29.1104 81.5512 29.1104ZM81.642 32.18C81.642 33.5525 80.6573 34.6652 79.4426 34.6652C78.228 34.6652 77.2433 33.5525 77.2433 32.18C77.2433 30.8074 78.228 29.6948 79.4426 29.6948C80.6573 29.6948 81.642 30.8074 81.642 32.18Z" fill="#FAFAFA"/>
<path fill-rule="evenodd" clip-rule="evenodd" d="M74.7447 32.1544C74.7447 34.3885 72.9296 36.1995 70.6905 36.1995C68.4514 36.1995 66.6363 34.3885 66.6363 32.1544C66.6363 29.9204 68.4514 28.1093 70.6905 28.1093C72.9296 28.1093 74.7447 29.9204 74.7447 32.1544ZM72.9428 32.1546C72.9428 33.5125 71.9225 34.6134 70.6639 34.6134C69.4053 34.6134 68.3851 33.5125 68.3851 32.1546C68.3851 30.7966 69.4053 29.6958 70.6639 29.6958C71.9225 29.6958 72.9428 30.7966 72.9428 32.1546Z" fill="#FAFAFA"/>
<path fill-rule="evenodd" clip-rule="evenodd" d="M65.9733 32.1544C65.9733 34.3885 64.1581 36.1995 61.919 36.1995C59.6799 36.1995 57.8648 34.3885 57.8648 32.1544C57.8648 29.9204 59.6799 28.1093 61.919 28.1093C64.1581 28.1093 65.9733 29.9204 65.9733 32.1544ZM64.1713 32.1546C64.1713 33.5125 63.151 34.6134 61.8924 34.6134C60.6339 34.6134 59.6136 33.5125 59.6136 32.1546C59.6136 30.7966 60.6339 29.6958 61.8924 29.6958C63.151 29.6958 64.1713 30.7966 64.1713 32.1546Z" fill="#FAFAFA"/>
<path fill-rule="evenodd" clip-rule="evenodd" d="M51.4502 29.3915H56.8029L56.7499 31.0836H51.4502V29.3915Z" fill="#FAFAFA"/>
<path fill-rule="evenodd" clip-rule="evenodd" d="M51.3707 36.2125C54.8971 36.2442 57.8383 33.7631 57.2501 29.4542C57.2501 29.4333 57.25 29.4124 57.2499 29.3916H55.6864C55.6991 29.5714 55.7036 29.7565 55.6993 29.9466C55.7031 33.0241 53.9263 34.4676 51.4238 34.4676C48.9213 34.4676 46.8926 32.4434 46.8926 29.9466C46.8926 27.4497 48.9213 25.4256 51.4238 25.4256C52.6758 25.4256 53.7609 25.8528 54.5249 26.6323L55.7497 25.4102C54.7078 24.3126 53.1837 23.6806 51.3707 23.6806C47.9023 23.6806 45.0906 26.486 45.0906 29.9466C45.0906 33.4072 47.9023 36.2076 51.3707 36.2125Z" fill="#FAFAFA"/>
<path fill-rule="evenodd" clip-rule="evenodd" d="M34.8338 22.953C36.642 23.9814 36.642 26.5875 34.8338 27.616L19.991 36.0584C18.2029 37.0755 15.9826 35.784 15.9826 33.7269V16.8424C15.9826 14.7852 18.2029 13.4938 19.991 14.5108L34.8338 22.953Z" fill="url(#paint0_linear_15_31)"/>
<mask id="mask0_15_31" style="mask-type:alpha" maskUnits="userSpaceOnUse" x="15" y="14" width="22" height="23">
<path fill-rule="evenodd" clip-rule="evenodd" d="M34.8338 22.953C36.642 23.9814 36.642 26.5875 34.8338 27.616L19.991 36.0584C18.2029 37.0755 15.9826 35.784 15.9826 33.7269V16.8424C15.9826 14.7852 18.2029 13.4938 19.991 14.5108L34.8338 22.953Z" fill="white"/>
</mask>
<g mask="url(#mask0_15_31)">
<path fill-rule="evenodd" clip-rule="evenodd" d="M15.9658 13.2597L27.8701 25.0915L15.812 37.3909L15.9658 13.2597Z" fill="url(#paint1_linear_15_31)"/>
<path fill-rule="evenodd" clip-rule="evenodd" d="M13.5178 10.8242L27.8687 25.0951L32.1353 21.0248L13.5178 10.8242Z" fill="url(#paint2_linear_15_31)"/>
<path fill-rule="evenodd" clip-rule="evenodd" d="M27.8706 25.0917L34.4024 31.6755L14.8892 38.2593L27.8706 25.0917Z" fill="url(#paint3_linear_15_31)"/>
</g>
<path d="M49.9257 16.6539V16.072H47.6585V16.8164H48.9735L48.9697 16.9071C48.9546 17.6704 48.384 18.1918 47.5603 18.1918C46.5778 18.1918 45.9657 17.4248 45.9657 16.1702C45.9657 14.9422 46.5514 14.2129 47.5338 14.2129C48.2026 14.2129 48.709 14.5832 48.8941 15.2105H49.8841C49.7065 14.1184 48.7694 13.3854 47.53 13.3854C45.9543 13.3854 44.9681 14.4509 44.9681 16.1816C44.9681 17.9386 45.9581 19.0193 47.5489 19.0193C49.0415 19.0193 49.9257 18.1314 49.9257 16.6539ZM54.6392 18.1049H52.0848V16.5481H54.4994V15.7735H52.0848V14.2998H54.6392V13.4761H51.1099V18.9287H54.6392V18.1049ZM58.1775 18.9287V14.2998H59.8061V13.4761H55.574V14.2998H57.2064V18.9287H58.1775ZM63.773 18.9287V13.4761H62.7981V18.9287H63.773ZM67.4247 18.9287V14.2998H69.0533V13.4761H64.8212V14.2998H66.4536V18.9287H67.4247ZM74.4484 13.3854C72.8576 13.3854 71.8601 14.4698 71.8601 16.2042C71.8601 17.9386 72.8576 19.0193 74.4484 19.0193C76.0355 19.0193 77.033 17.9386 77.033 16.2042C77.033 14.4698 76.0355 13.3854 74.4484 13.3854ZM74.4484 14.2167C75.4196 14.2167 76.0393 14.9875 76.0393 16.2042C76.0393 17.4172 75.4196 18.188 74.4484 18.188C73.4735 18.188 72.8576 17.4172 72.8576 16.2042C72.8576 14.9875 73.4735 14.2167 74.4484 14.2167ZM79.1393 18.9287V15.1047H79.1733L81.8826 18.9287H82.7214V13.4761H81.7843V17.2963H81.7503L79.0448 13.4761H78.1984V18.9287H79.1393Z" fill="#FAFAFA"/>
<defs>
<linearGradient id="paint0_linear_15_31" x1="37.564" y1="20.601" x2="29.1661" y2="20.601" gradientUnits="userSpaceOnUse">
<stop stop-color="#FBDA09"/>
<stop offset="1" stop-color="#FFBC00"/>
</linearGradient>
<linearGradient id="paint1_linear_15_31" x1="16.9812" y1="35.7328" x2="25.8197" y2="34.497" gradientUnits="userSpaceOnUse">
<stop stop-color="#01E2FF"/>
<stop offset="1" stop-color="#01C4FF"/>
</linearGradient>
<linearGradient id="paint2_linear_15_31" x1="11.3808" y1="18.2267" x2="20.1378" y2="29.6474" gradientUnits="userSpaceOnUse">
<stop stop-color="#28D781"/>
<stop offset="1" stop-color="#02F076"/>
</linearGradient>
<linearGradient id="paint3_linear_15_31" x1="22.2284" y1="23.1482" x2="14.7454" y2="35.8519" gradientUnits="userSpaceOnUse">
<stop stop-color="#F2414E"/>
<stop offset="1" stop-color="#E02554"/>
</linearGradient>
</defs>
</svg>
