<svg id="eJlb0gGnKIV1" xmlns="http://www.w3.org/2000/svg" xmlns:xlink="http://www.w3.org/1999/xlink" viewBox="0 0 287 287" shape-rendering="geometricPrecision" text-rendering="geometricPrecision"><style><![CDATA[#eJlb0gGnKIV2_to {animation: eJlb0gGnKIV2_to__to 2000ms linear infinite normal forwards}@keyframes eJlb0gGnKIV2_to__to { 0% {transform: translate(32.489353px,37.000046px);animation-timing-function: cubic-bezier(0.93,0,0.05,1)} 25% {transform: translate(252.661648px,36.999998px);animation-timing-function: cubic-bezier(0.93,0,0.05,1)} 50% {transform: translate(252.661648px,247.758213px);animation-timing-function: cubic-bezier(0.935,0,0.08,1)} 75% {transform: translate(32.419313px,247.758213px);animation-timing-function: cubic-bezier(0.915,0.005,0.085,0.995)} 100% {transform: translate(32.419313px,36.999998px)}}]]></style><g id="eJlb0gGnKIV2_to" transform="translate(32.489353,37.000046)"><path id="eJlb0gGnKIV2" d="M47.2537,27.8309L46.4188,19.532C46.2536,17.8663,44.016,17.4204,43.2108,18.8884L39.3968,25.8329L28.5989,25.8329L24.7849,18.8884C23.9798,17.4204,21.7464,17.8705,21.5769,19.532L20.7463,27.8351C17.8773,29.833,16,33.1391,16,36.8827L16,51.2007C16,53.8506,18.1655,56,20.8353,56L47.1647,56C49.8345,56,52,53.8506,52,51.2007L52,36.8827C52,33.1391,50.1227,29.8288,47.2537,27.8309Z" transform="translate(-32.489353,-37.000046)" fill="rgb(0,0,0)" stroke="none" stroke-width="1"/></g><path id="eJlb0gGnKIV3" d="M137.241,185.915L118.605,183.868L118.634,182.86L137.111,180.609L143.543,144.645C143.543,144.645,111.524,138.559,99.0511,165.081L98.3848,165.081L104.126,144.081L59,144.081L59,216.963L97.5804,216.963L97.5235,196.613L98.5311,196.613L106.059,216.963L145.765,216.963L137.241,185.915Z" fill="rgb(248,109,26)" stroke="none" stroke-width="1"/><path id="eJlb0gGnKIV4" d="M115.311,69.2804C104.284,69.5566,98.3444,77.2191,94.8829,84.589L94.6188,84.589L99.8557,69.2682L59.0083,69.2682L59.0083,139.002L98.9294,139.002L100.412,96.2168L101.221,96.2168L110.712,139.002L141.504,139.002L141.504,97.204C141.491,76.8859,129.766,68.9188,115.311,69.2804Z" fill="rgb(248,109,26)" stroke="none" stroke-width="1"/><path id="eJlb0gGnKIV5" d="M228.025,109.811C225.262,126.387,210.856,139.026,193.491,139.026L179.544,139.026C160.205,139.026,144.53,123.352,144.53,104.013C144.53,84.6743,160.205,69,179.544,69L193.491,69C209.169,69,221.52,79.3073,225.981,93.515C226.904,96.4564,224.482,109.547,199.971,109.266C195.758,109.218,191.695,108.637,187.864,107.471C187.88,106.577,187.889,105.663,187.889,104.724C187.889,96.0298,187.149,88.9849,186.239,88.9849C185.329,88.9849,184.59,96.0339,184.59,104.724C184.59,105.346,184.594,105.959,184.602,106.565C184.59,106.605,184.59,106.646,184.602,106.691C184.602,106.727,184.602,106.768,184.602,106.804L184.744,106.841C194.222,115.657,214.642,114.284,228.025,109.811Z" fill="rgb(248,109,26)" stroke="none" stroke-width="1"/><path id="eJlb0gGnKIV6" d="M192.735,144.129L177.443,144.129C157.503,144.129,141.337,160.295,141.337,180.236L141.337,180.995C141.337,200.936,157.503,217.101,177.443,217.101L192.735,217.101C212.676,217.101,228.842,200.936,228.842,180.995L228.842,180.236C228.842,160.295,212.676,144.129,192.735,144.129ZM185.089,196.572C184.167,196.572,183.415,189.43,183.415,180.613C183.415,171.801,184.163,164.655,185.089,164.655C186.016,164.655,186.763,171.797,186.763,180.613C186.763,189.426,186.011,196.572,185.089,196.572Z" fill="rgb(248,109,26)" stroke="none" stroke-width="1"/></svg>