<svg width="140" height="50" viewBox="0 0 140 50" fill="none" xmlns="http://www.w3.org/2000/svg">
<path d="M135.456 0.812958H4.54397C2.85814 0.812958 1.49152 2.17959 1.49152 3.86541V46.1346C1.49152 47.8204 2.85814 49.1871 4.54397 49.1871H135.456C137.142 49.1871 138.509 47.8204 138.509 46.1346V3.86541C138.509 2.17959 137.142 0.812958 135.456 0.812958Z" stroke="#FAFAFA" stroke-width="0.872129"/>
<path fill-rule="evenodd" clip-rule="evenodd" d="M55.29 35.5756H57.4183L52.7592 22.6713H50.604L45.9448 35.5756H48.0016L49.191 32.1506H54.1095L55.29 35.5756ZM51.5788 25.0144H51.7308L53.5998 30.4695H49.7008L51.5788 25.0144ZM63.0617 25.676C61.7382 25.676 60.5935 26.3378 60.0033 27.4467H59.8602V25.837H58.009V38.7324H59.9317V34.1001H60.0837C60.5935 35.1285 61.6934 35.7366 63.0796 35.7366C65.5388 35.7366 67.1038 33.796 67.1038 30.7018C67.1038 27.6076 65.5388 25.676 63.0617 25.676ZM62.5162 34.0105C60.9065 34.0105 59.896 32.7406 59.896 30.7106C59.896 28.6717 60.9065 27.4018 62.5251 27.4018C64.1527 27.4018 65.1275 28.6449 65.1275 30.7017C65.1275 32.7675 64.1527 34.0105 62.5162 34.0105ZM73.0334 25.676C71.7099 25.676 70.5652 26.3378 69.975 27.4467H69.8319V25.837H67.9807V38.7324H69.9034V34.1001H70.0555C70.5652 35.1285 71.6652 35.7366 73.0513 35.7366C75.5105 35.7366 77.0755 33.796 77.0755 30.7018C77.0755 27.6076 75.5105 25.676 73.0334 25.676ZM72.4879 34.0105C70.8782 34.0105 69.8677 32.7406 69.8677 30.7106C69.8677 28.6717 70.8782 27.4018 72.4968 27.4018C74.1244 27.4018 75.0992 28.6449 75.0992 30.7017C75.0992 32.7675 74.1244 34.0105 72.4879 34.0105ZM81.1456 32.1059C81.2887 34.4131 83.2114 35.8887 86.073 35.8887C89.1315 35.8887 91.0452 34.3416 91.0452 31.8734C91.0452 29.9328 89.9542 28.8597 87.3071 28.2427L85.8852 27.8939C84.204 27.5004 83.5244 26.9728 83.5244 26.0517C83.5244 24.8891 84.5796 24.129 86.1625 24.129C87.6648 24.129 88.7022 24.8713 88.89 26.0606H90.8395C90.7233 23.8876 88.8095 22.3583 86.1893 22.3583C83.3723 22.3583 81.4944 23.8876 81.4944 26.1858C81.4944 28.0817 82.5585 29.2085 84.8926 29.754L86.5559 30.1564C88.264 30.5588 89.0152 31.1491 89.0152 32.1328C89.0152 33.2774 87.8348 34.1091 86.2251 34.1091C84.4991 34.1091 83.3008 33.3311 83.1309 32.1059H81.1456ZM92.7002 23.4761V25.8817H91.0994V27.5004H92.7002V33.0002C92.7002 34.8781 93.5497 35.6293 95.6871 35.6293C96.0627 35.6293 96.4114 35.5846 96.7155 35.5309V33.9302C96.4472 33.957 96.2952 33.9749 96.0001 33.9749C95.0432 33.9749 94.6229 33.5278 94.6229 32.5083V27.5004H96.8049V25.8817H94.6229V23.4761H92.7002ZM101.572 34.0556C99.8996 34.0556 98.9606 32.8305 98.9606 30.7021C98.9606 28.5916 99.8996 27.3575 101.572 27.3575C103.235 27.3575 104.183 28.5916 104.183 30.7021C104.183 32.8215 103.235 34.0556 101.572 34.0556ZM101.572 35.7631C104.416 35.7631 106.159 33.8583 106.159 30.7015C106.159 27.5626 104.407 25.6489 101.572 25.6489C98.728 25.6489 96.9753 27.5626 96.9753 30.7015C96.9753 33.8583 98.7191 35.7631 101.572 35.7631ZM107.036 35.5756H108.959V29.8254C108.959 28.4572 109.988 27.5361 111.436 27.5361C111.758 27.5361 112.348 27.5987 112.5 27.6524V25.7565C112.295 25.7028 111.928 25.676 111.651 25.676C110.381 25.676 109.308 26.3735 109.031 27.3304H108.888V25.837H107.036V35.5756ZM116.829 27.2861C118.251 27.2861 119.181 28.2787 119.226 29.8079H114.307C114.415 28.2876 115.407 27.2861 116.829 27.2861ZM119.217 32.9461C118.859 33.7063 118.063 34.1266 116.901 34.1266C115.363 34.1266 114.37 33.0445 114.307 31.3364V31.2291H121.184V30.5584C121.184 27.5 119.548 25.6489 116.838 25.6489C114.093 25.6489 112.349 27.6252 112.349 30.7373C112.349 33.8494 114.057 35.7631 116.847 35.7631C119.074 35.7631 120.63 34.69 121.068 32.9461H119.217Z" fill="#FAFAFA"/>
<path fill-rule="evenodd" clip-rule="evenodd" d="M34.883 24.979C34.8549 21.8598 37.437 20.3423 37.5551 20.2716C36.0927 18.1396 33.8262 17.8483 33.0297 17.8251C31.126 17.6247 29.2795 18.9642 28.3097 18.9642C27.3206 18.9642 25.8273 17.8444 24.2179 17.8773C22.1468 17.9093 20.2093 19.1084 19.1466 20.9704C16.9536 24.7671 18.5892 30.3464 20.6903 33.4153C21.7413 34.9192 22.9694 36.5964 24.5769 36.5374C26.1496 36.4735 26.7371 35.5347 28.6349 35.5347C30.5153 35.5347 31.067 36.5374 32.7064 36.4987C34.3943 36.4735 35.4569 34.9899 36.4711 33.4724C37.6857 31.7516 38.1735 30.0531 38.1928 29.966C38.1541 29.9535 34.9159 28.7176 34.883 24.979Z" fill="#FAFAFA"/>
<path fill-rule="evenodd" clip-rule="evenodd" d="M31.7862 15.8059C32.632 14.7481 33.2107 13.309 33.0501 11.8486C31.8258 11.9028 30.2948 12.6954 29.4131 13.73C28.6331 14.6416 27.9363 16.1359 28.1163 17.5411C29.4915 17.6437 30.9035 16.8472 31.7862 15.8059Z" fill="#FAFAFA"/>
<path d="M46.5604 12.7739V18.2265H48.5518C50.1842 18.2265 51.144 17.2138 51.144 15.487C51.144 13.7601 50.1804 12.7739 48.5518 12.7739H46.5604ZM47.5353 13.5977H48.4498C49.538 13.5977 50.1502 14.2703 50.1502 15.4908C50.1502 16.7339 49.5456 17.4028 48.4498 17.4028H47.5353V13.5977ZM54.7087 12.6832C53.1179 12.6832 52.1204 13.7677 52.1204 15.5021C52.1204 17.2365 53.1179 18.3172 54.7087 18.3172C56.2958 18.3172 57.2933 17.2365 57.2933 15.5021C57.2933 13.7677 56.2958 12.6832 54.7087 12.6832ZM54.7087 13.5145C55.6799 13.5145 56.2996 14.2854 56.2996 15.5021C56.2996 16.715 55.6799 17.4859 54.7087 17.4859C53.7338 17.4859 53.1179 16.715 53.1179 15.5021C53.1179 14.2854 53.7338 13.5145 54.7087 13.5145ZM61.4476 14.2816H61.4854L62.6001 18.2265H63.5183L64.9806 12.7739H63.968L63.0233 16.904H62.9931L61.8973 12.7739H61.0357L59.9399 16.904H59.9097L58.965 12.7739H57.9523L59.4147 18.2265H60.3329L61.4476 14.2816ZM66.9508 18.2265V14.4025H66.9848L69.6941 18.2265H70.533V12.7739H69.5959V16.5941H69.5619L66.8564 12.7739H66.01V18.2265H66.9508ZM75.3334 17.4028H72.8584V12.7739H71.8835V18.2265H75.3334V17.4028ZM78.5959 12.6832C77.0051 12.6832 76.0075 13.7677 76.0075 15.5021C76.0075 17.2365 77.0051 18.3172 78.5959 18.3172C80.1829 18.3172 81.1805 17.2365 81.1805 15.5021C81.1805 13.7677 80.1829 12.6832 78.5959 12.6832ZM78.5959 13.5145C79.567 13.5145 80.1867 14.2854 80.1867 15.5021C80.1867 16.715 79.567 17.4859 78.5959 17.4859C77.621 17.4859 77.0051 16.715 77.0051 15.5021C77.0051 14.2854 77.621 13.5145 78.5959 13.5145ZM85.7051 18.2265H86.7329L84.7982 12.7739H83.6986L81.7639 18.2265H82.7691L83.2338 16.8171H85.2403L85.7051 18.2265ZM84.2238 13.7375H84.2503L85.0098 16.0651H83.4606L84.2238 13.7375ZM87.7055 12.7739V18.2265H89.6969C91.3292 18.2265 92.289 17.2138 92.289 15.487C92.289 13.7601 91.3255 12.7739 89.6969 12.7739H87.7055ZM88.6804 13.5977H89.5948C90.6831 13.5977 91.2952 14.2703 91.2952 15.4908C91.2952 16.7339 90.6906 17.4028 89.5948 17.4028H88.6804V13.5977ZM97.79 12.6832C96.1992 12.6832 95.2016 13.7677 95.2016 15.5021C95.2016 17.2365 96.1992 18.3172 97.79 18.3172C99.377 18.3172 100.375 17.2365 100.375 15.5021C100.375 13.7677 99.377 12.6832 97.79 12.6832ZM97.79 13.5145C98.7611 13.5145 99.3808 14.2854 99.3808 15.5021C99.3808 16.715 98.7611 17.4859 97.79 17.4859C96.8151 17.4859 96.1992 16.715 96.1992 15.5021C96.1992 14.2854 96.8151 13.5145 97.79 13.5145ZM102.481 18.2265V14.4025H102.515L105.224 18.2265H106.063V12.7739H105.126V16.5941H105.092L102.386 12.7739H101.54V18.2265H102.481Z" fill="#FAFAFA"/>
</svg>
