<svg width="35" height="38" viewBox="0 0 35 38" fill="none" xmlns="http://www.w3.org/2000/svg">
<path d="M28.8926 9.97686L28.9589 10.6541L29.512 11.0503C31.9184 12.774 33.5 15.6354 33.5 18.8827V33.2007C33.5 35.0516 32.0371 36.5 30.299 36.5H4.701C2.9629 36.5 1.5 35.0516 1.5 33.2007V18.8827C1.5 15.6361 3.08105 12.7786 5.48796 11.0545L6.04152 10.658L6.10743 9.98026L6.91469 1.68002C6.91472 1.67971 6.91475 1.67941 6.91478 1.67911C6.91961 1.63132 6.92978 1.60317 6.93646 1.58848C6.94337 1.57331 6.951 1.56276 6.95906 1.55423C6.97648 1.53579 7.00841 1.51488 7.05338 1.50558C7.09834 1.49629 7.13054 1.5038 7.14551 1.51035C7.15222 1.51329 7.15952 1.51755 7.16847 1.52586C7.17714 1.53391 7.19553 1.55332 7.21734 1.59421L7.21772 1.59493L10.9258 8.53942L11.3495 9.3329H12.249H22.7469H23.6464L24.0701 8.53942L27.7782 1.59493L27.7785 1.59421C27.8003 1.55343 27.8187 1.53391 27.8276 1.52565C27.8368 1.51712 27.8445 1.5126 27.8516 1.50946C27.8676 1.50247 27.9005 1.49504 27.9454 1.50428C27.9903 1.51351 28.0213 1.53416 28.0377 1.55159C28.0453 1.55964 28.0526 1.56971 28.0593 1.58451C28.0659 1.59893 28.0761 1.62728 28.0808 1.67599L28.081 1.67796L28.8926 9.97686Z" fill="white" stroke="#F86D1A" stroke-width="3"/>
</svg>
