<svg width="427" height="116" viewBox="0 0 427 116" fill="none" xmlns="http://www.w3.org/2000/svg">
    <path d="M32.7425 10.3776L31.8711 1.6209C31.6976 -0.134673 29.354 -0.608467 28.5122 0.939822L24.5188 8.27093H13.1985L9.20513 0.935592C8.35907 -0.612697 6.01971 -0.138904 5.84627 1.61667L4.97483 10.3776C1.96286 12.4885 0 15.9828 0 19.9339V35.0445C0 37.8407 2.26744 40.1124 5.0679 40.1124H32.6494C35.4457 40.1124 37.7173 37.8449 37.7173 35.0445V19.9339C37.7173 15.9785 35.7502 12.4885 32.7425 10.3776Z" fill="#0E0928"/>
    <path d="M318.219 83.6425L298.811 81.4935L298.844 80.4444L318.092 78.1135L324.818 40.6584C324.818 40.6584 291.471 34.2918 278.454 61.9114H277.761L283.755 40.0408L236.752 40.007L236.693 115.928L276.876 115.958L276.834 94.7597H277.883L285.709 115.966L327.069 115.996L318.219 83.6425Z" fill="#FC7819"/>
    <path d="M100.521 40.0662C88.5156 40.3581 82.0432 48.6918 78.2655 56.7124H77.9779L83.6888 40.0408L39.2199 40.007L39.1606 115.928L82.6228 115.962L84.2726 69.3864H85.1525L95.449 115.975L128.97 116L129.004 70.4947C129.021 48.3703 116.258 39.6855 100.521 40.0662Z" fill="#FC7819"/>
    <path d="M228.276 84.3233C225.264 102.306 209.624 116.008 190.787 115.996L175.655 115.983C154.673 115.966 137.68 98.9474 137.697 77.9651C137.714 56.9829 154.732 39.9897 175.714 40.0067L190.846 40.0194C207.856 40.032 221.249 51.2254 226.076 66.6406C227.074 69.8345 224.439 84.0314 197.843 83.7099C193.274 83.6549 188.862 83.0203 184.708 81.7555C184.725 80.7867 184.738 79.7926 184.738 78.7773C184.746 69.3438 183.951 61.6996 182.961 61.6996C181.971 61.6996 181.167 69.3438 181.159 78.7773C181.159 79.4542 181.163 80.1184 181.171 80.774C181.159 80.8163 181.159 80.8629 181.171 80.9094C181.171 80.9517 181.171 80.9898 181.171 81.0321L181.324 81.0744C191.599 90.6391 213.753 89.1627 228.276 84.3233Z" fill="#FC7819"/>
    <path d="M388.777 40.0194L372.854 40.0067C352.092 39.9897 335.247 56.8094 335.234 77.5717V78.3628C335.217 99.1251 352.037 115.97 372.799 115.983L388.722 115.996C409.484 116.012 426.329 99.1928 426.342 78.4305V77.6394C426.359 56.8771 409.539 40.032 388.777 40.0194ZM380.773 94.6156C379.813 94.6156 379.039 87.1745 379.043 77.999C379.051 68.8235 379.834 61.3866 380.798 61.3866C381.759 61.3866 382.533 68.8277 382.529 78.0032C382.52 87.1787 381.738 94.6156 380.773 94.6156Z" fill="#FC7819"/>
</svg>
