<svg width="344" height="344" viewBox="0 0 344 344" fill="none" xmlns="http://www.w3.org/2000/svg">
<path d="M280.238 97.0473L273.42 28.6297C272.071 14.8977 253.797 11.2219 247.222 23.3242L216.074 80.5758H127.891L96.7436 23.3242C90.168 11.2219 71.9293 14.9323 70.5449 28.6297L63.7616 97.082C40.3316 113.554 25 140.81 25 171.672V289.712C25 311.559 42.685 329.279 64.4884 329.279H279.512C301.315 329.279 319 311.559 319 289.712V171.672C319 140.81 303.668 113.519 280.238 97.0473Z" fill="#F86D1A"/>
<path d="M169.881 264.111L147.426 261.644L147.46 260.43L169.724 257.718L177.474 214.384C177.474 214.384 138.893 207.051 123.865 239.008H123.062L129.979 213.704H75.6064V301.521H122.093L122.024 277.001H123.238L132.309 301.521H180.151L169.881 264.111Z" fill="white"/>
<path d="M143.456 123.576C130.17 123.908 123.013 133.141 118.843 142.021H118.524L124.834 123.561H75.6167V207.585H123.718L125.505 156.032H126.479L137.915 207.585H175.017V157.221C175.002 132.74 160.874 123.14 143.456 123.576Z" fill="white"/>
<path d="M279.268 172.411C275.939 192.384 258.58 207.614 237.657 207.614H220.852C197.55 207.614 178.664 188.728 178.664 165.426C178.664 142.124 197.55 123.238 220.852 123.238H237.657C256.549 123.238 271.43 135.657 276.805 152.776C277.917 156.32 274.999 172.093 245.465 171.755C240.389 171.697 235.494 170.997 230.877 169.592C230.897 168.515 230.907 167.413 230.907 166.282C230.907 155.806 230.016 147.318 228.919 147.318C227.823 147.318 226.932 155.811 226.932 166.282C226.932 167.031 226.937 167.771 226.946 168.5C226.932 168.549 226.932 168.598 226.946 168.652C226.946 168.696 226.946 168.745 226.946 168.789L227.118 168.833C238.539 179.456 263.143 177.801 279.268 172.411Z" fill="white"/>
<path d="M236.747 213.762H218.321C194.294 213.762 174.816 233.241 174.816 257.267V258.183C174.816 282.209 194.294 301.688 218.321 301.688H236.747C260.773 301.688 280.252 282.209 280.252 258.183V257.267C280.252 233.241 260.773 213.762 236.747 213.762ZM227.534 276.952C226.423 276.952 225.517 268.346 225.517 257.723C225.517 247.105 226.418 238.494 227.534 238.494C228.65 238.494 229.551 247.1 229.551 257.723C229.551 268.341 228.645 276.952 227.534 276.952Z" fill="white"/>
</svg>
