<svg width="447" height="314" viewBox="0 0 447 314" fill="none" xmlns="http://www.w3.org/2000/svg">
<path d="M13.9949 168.813H0V310C0 312.209 1.79087 314 4.00001 314H443C445.209 314 447 312.209 447 310V9.49162L434.215 23.8353C432.279 26.0064 428.747 25.4519 427.571 22.7922L419.425 4.38154C418.784 2.93375 417.35 2 415.767 2H394.604C393.572 2 392.58 2.39906 391.835 3.11373L376.544 17.7855C375.46 18.8258 373.884 19.1707 372.464 18.6786L358.053 13.6827C356.1 13.006 353.954 13.9276 353.1 15.8092L336.73 51.8844C335.602 54.3708 332.369 55.021 330.367 53.1643L321.047 44.5194C319.731 43.2989 317.763 43.1043 316.234 44.0435L313.997 45.4169C312.936 46.0683 311.633 46.1887 310.471 45.7427L304.761 43.5513C303.075 42.9041 301.164 43.4673 300.098 44.9255L288.495 60.8021C287.551 62.0941 285.928 62.699 284.368 62.3399L277.456 60.7481C275.452 60.2867 273.425 61.4194 272.768 63.3676L255.681 114.023C255.287 115.19 254.377 116.111 253.215 116.519L235.06 122.89C233.409 123.469 231.572 122.908 230.527 121.504L216.995 103.327C215.483 101.295 212.486 101.163 210.801 103.054L206.297 108.107C205.844 108.614 205.27 108.998 204.628 109.222L192.96 113.293C191.898 113.664 191.041 114.465 190.599 115.5L179.691 141.059C179.211 142.185 178.24 143.029 177.058 143.35L158.015 148.509C157.229 148.722 156.527 149.169 156.002 149.792L144.783 163.101C143.477 164.65 141.219 164.978 139.526 163.864L131.134 158.343C129.747 157.43 127.94 157.47 126.593 158.442L98.2475 178.921C96.7277 180.019 94.6492 179.914 93.2477 178.668L85.3727 171.669C84.118 170.554 82.3007 170.341 80.8221 171.135L71.1574 176.328C70.5754 176.641 69.9249 176.804 69.2642 176.804H51.6393C50.6488 176.804 49.6935 176.437 48.9584 175.773L30.7562 159.336C29.193 157.924 26.803 157.966 25.2909 159.432L16.7794 167.685C16.0331 168.409 15.0344 168.813 13.9949 168.813Z" fill="url(#paint0_linear_130_231)"/>
<path d="M0 168.813H13.9949C15.0344 168.813 16.0331 168.409 16.7794 167.685L25.2909 159.432C26.803 157.966 29.193 157.924 30.7562 159.336L48.9584 175.773C49.6935 176.437 50.6488 176.804 51.6392 176.804H69.2642C69.9249 176.804 70.5754 176.641 71.1574 176.328L80.8221 171.135C82.3007 170.341 84.1181 170.554 85.3727 171.669L93.2477 178.668C94.6492 179.914 96.7277 180.019 98.2475 178.921L126.593 158.442C127.94 157.47 129.747 157.43 131.134 158.343L139.526 163.864C141.219 164.978 143.477 164.65 144.783 163.101L156.002 149.792C156.527 149.169 157.229 148.722 158.015 148.509L177.058 143.35C178.24 143.029 179.211 142.185 179.691 141.059L190.599 115.5C191.041 114.465 191.898 113.664 192.96 113.293L204.628 109.222C205.27 108.998 205.844 108.614 206.297 108.107L210.801 103.054C212.486 101.163 215.483 101.295 216.995 103.327L230.527 121.504C231.572 122.908 233.409 123.469 235.06 122.89L253.215 116.519C254.377 116.111 255.287 115.19 255.681 114.023L272.768 63.3676C273.425 61.4194 275.452 60.2867 277.456 60.7481L284.368 62.3399C285.928 62.699 287.551 62.0941 288.495 60.8021L300.098 44.9255C301.164 43.4673 303.075 42.9041 304.761 43.5513L310.471 45.7427C311.633 46.1887 312.936 46.0683 313.997 45.4169L316.234 44.0435C317.763 43.1043 319.731 43.2989 321.047 44.5194L330.367 53.1643C332.369 55.021 335.602 54.3708 336.73 51.8844L353.1 15.8092C353.954 13.9276 356.1 13.006 358.053 13.6827L372.464 18.6786C373.884 19.1707 375.46 18.8258 376.544 17.7855L391.835 3.11373C392.58 2.39906 393.572 2 394.604 2H415.767C417.35 2 418.784 2.93375 419.425 4.38154L427.571 22.7922C428.747 25.4519 432.279 26.0064 434.215 23.8353L447 9.49162" stroke="#7A48FF" stroke-width="3" stroke-linejoin="round"/>
<defs>
<linearGradient id="paint0_linear_130_231" x1="231.248" y1="2" x2="231.248" y2="314" gradientUnits="userSpaceOnUse">
<stop stop-color="#7A48FF" stop-opacity="0.1"/>
<stop offset="1" stop-color="#7A48FF" stop-opacity="0"/>
</linearGradient>
</defs>
</svg>
