<svg width="398" height="248" viewBox="0 0 398 248" fill="none" xmlns="http://www.w3.org/2000/svg">
<circle cx="198.5" cy="43.5" r="43.5" fill="#F3BA2F" fill-opacity="0.15"/>
<rect x="187.25" y="54.75" width="7.5" height="7.5" fill="#F3BA2F"/>
<rect x="194.75" y="54.75" width="7.5" height="7.5" fill="#F3BA2F"/>
<rect x="187.25" y="47.25" width="7.5" height="7.5" fill="#F3BA2F"/>
<rect x="187.25" y="39.75" width="7.5" height="7.5" fill="#F3BA2F"/>
<rect x="194.75" y="39.75" width="7.5" height="7.5" fill="#F3BA2F"/>
<rect x="194.75" y="32.25" width="7.5" height="7.5" fill="#F3BA2F"/>
<rect x="179.75" y="24.75" width="7.5" height="7.5" fill="#F3BA2F"/>
<rect x="209.75" y="24.75" width="7.5" height="7.5" fill="#F3BA2F"/>
<rect x="202.25" y="39.75" width="7.5" height="7.5" fill="#F3BA2F"/>
<rect x="202.25" y="47.25" width="7.5" height="7.5" fill="#F3BA2F"/>
<rect x="202.25" y="54.75" width="7.5" height="7.5" fill="#F3BA2F"/>
<g opacity="0.6" filter="url(#filter0_d_504_999)">
<rect x="194.75" y="24.75" width="7.5" height="7.5" fill="#F3BA2F"/>
</g>
<g opacity="0.6" filter="url(#filter1_d_504_999)">
<rect x="209.75" y="47.25" width="7.5" height="7.5" fill="#F3BA2F"/>
</g>
<g opacity="0.6" filter="url(#filter2_d_504_999)">
<rect x="194.75" y="62.25" width="7.5" height="7.5" fill="#F3BA2F"/>
</g>
<g opacity="0.6" filter="url(#filter3_d_504_999)">
<rect x="179.75" y="47.25" width="7.5" height="7.5" fill="#F3BA2F"/>
</g>
<g opacity="0.6" filter="url(#filter4_d_504_999)">
<rect x="172.25" y="32.25" width="7.5" height="7.5" fill="#F3BA2F"/>
</g>
<g opacity="0.6" filter="url(#filter5_d_504_999)">
<rect x="217.25" y="32.25" width="7.5" height="7.5" fill="#F3BA2F"/>
</g>
<rect x="39" y="166" width="319" height="36" rx="4" fill="#FAFAFA" fill-opacity="0.1"/>
<path d="M48.7969 177.625H50.2578L53.9844 186.898L57.7031 177.625H59.1719L54.5469 189H53.4062L48.7969 177.625ZM48.3203 177.625H49.6094L49.8203 184.562V189H48.3203V177.625ZM58.3516 177.625H59.6406V189H58.1406V184.562L58.3516 177.625ZM63.6406 180.547V189H62.1875V180.547H63.6406ZM62.0781 178.305C62.0781 178.07 62.1484 177.872 62.2891 177.711C62.4349 177.549 62.6484 177.469 62.9297 177.469C63.2057 177.469 63.4167 177.549 63.5625 177.711C63.7135 177.872 63.7891 178.07 63.7891 178.305C63.7891 178.529 63.7135 178.721 63.5625 178.883C63.4167 179.039 63.2057 179.117 62.9297 179.117C62.6484 179.117 62.4349 179.039 62.2891 178.883C62.1484 178.721 62.0781 178.529 62.0781 178.305ZM67.4062 182.352V189H65.9609V180.547H67.3281L67.4062 182.352ZM67.0625 184.453L66.4609 184.43C66.4661 183.852 66.5521 183.318 66.7188 182.828C66.8854 182.333 67.1198 181.904 67.4219 181.539C67.724 181.174 68.0833 180.893 68.5 180.695C68.9219 180.492 69.388 180.391 69.8984 180.391C70.3151 180.391 70.6901 180.448 71.0234 180.562C71.3568 180.672 71.6406 180.849 71.875 181.094C72.1146 181.339 72.2969 181.656 72.4219 182.047C72.5469 182.432 72.6094 182.904 72.6094 183.461V189H71.1562V183.445C71.1562 183.003 71.0911 182.648 70.9609 182.383C70.8307 182.112 70.6406 181.917 70.3906 181.797C70.1406 181.672 69.8333 181.609 69.4688 181.609C69.1094 181.609 68.7812 181.685 68.4844 181.836C68.1927 181.987 67.9401 182.195 67.7266 182.461C67.5182 182.727 67.3542 183.031 67.2344 183.375C67.1198 183.714 67.0625 184.073 67.0625 184.453ZM78.3438 180.547V181.656H73.7734V180.547H78.3438ZM75.3203 178.492H76.7656V186.906C76.7656 187.193 76.8099 187.409 76.8984 187.555C76.987 187.701 77.1016 187.797 77.2422 187.844C77.3828 187.891 77.5339 187.914 77.6953 187.914C77.8151 187.914 77.9401 187.904 78.0703 187.883C78.2057 187.857 78.3073 187.836 78.375 187.82L78.3828 189C78.2682 189.036 78.1172 189.07 77.9297 189.102C77.7474 189.138 77.526 189.156 77.2656 189.156C76.9115 189.156 76.5859 189.086 76.2891 188.945C75.9922 188.805 75.7552 188.57 75.5781 188.242C75.4062 187.909 75.3203 187.461 75.3203 186.898V178.492Z" fill="#FAFAFA"/>
<path fill-rule="evenodd" clip-rule="evenodd" d="M340 192.5C344.694 192.5 348.5 188.694 348.5 184C348.5 179.306 344.694 175.5 340 175.5C335.306 175.5 331.5 179.306 331.5 184C331.5 188.694 335.306 192.5 340 192.5ZM343.766 180.234C344.078 180.547 344.078 181.053 343.766 181.366L341.131 184L343.766 186.634C344.078 186.947 344.078 187.453 343.766 187.766C343.453 188.078 342.947 188.078 342.634 187.766L340 185.131L337.366 187.766C337.053 188.078 336.547 188.078 336.234 187.766C335.922 187.453 335.922 186.947 336.234 186.634L338.869 184L336.234 181.366C335.922 181.053 335.922 180.547 336.234 180.234C336.547 179.922 337.053 179.922 337.366 180.234L340 182.869L342.634 180.234C342.947 179.922 343.453 179.922 343.766 180.234Z" fill="#FAFAFA" fill-opacity="0.4"/>
<rect x="77" y="172" width="1.5" height="24" rx="0.75" fill="#FAFAFA"/>
<circle cx="90.5" cy="123" r="12" fill="#7A48FF"/>
<circle cx="126.5" cy="123" r="12" fill="#6284F5"/>
<circle cx="162.5" cy="123" r="12" fill="#F3BA2F"/>
<path d="M161.201 127C160.957 127 160.712 126.908 160.525 126.724L157.93 124.167C157.556 123.799 157.556 123.202 157.93 122.834C158.304 122.466 158.909 122.465 159.283 122.833L161.201 124.724L165.715 120.276C166.089 119.908 166.693 119.908 167.067 120.276C167.441 120.645 167.441 121.242 167.067 121.61L161.878 126.724C161.691 126.908 161.446 127 161.201 127" fill="#FAFAFA"/>
<circle cx="198.5" cy="123" r="12" fill="#F04086"/>
<circle cx="234.5" cy="123" r="12" fill="#35B14F"/>
<circle cx="270.5" cy="123" r="12" fill="#F56417"/>
<circle cx="306.5" cy="123" r="12" fill="#CA00AA"/>
<defs>
<filter id="filter0_d_504_999" x="190.75" y="20.75" width="15.5" height="15.5" filterUnits="userSpaceOnUse" color-interpolation-filters="sRGB">
<feFlood flood-opacity="0" result="BackgroundImageFix"/>
<feColorMatrix in="SourceAlpha" type="matrix" values="0 0 0 0 0 0 0 0 0 0 0 0 0 0 0 0 0 0 127 0" result="hardAlpha"/>
<feOffset/>
<feGaussianBlur stdDeviation="2"/>
<feComposite in2="hardAlpha" operator="out"/>
<feColorMatrix type="matrix" values="0 0 0 0 0 0 0 0 0 0 0 0 0 0 0 0 0 0 0.35 0"/>
<feBlend mode="normal" in2="BackgroundImageFix" result="effect1_dropShadow_504_999"/>
<feBlend mode="normal" in="SourceGraphic" in2="effect1_dropShadow_504_999" result="shape"/>
</filter>
<filter id="filter1_d_504_999" x="205.75" y="43.25" width="15.5" height="15.5" filterUnits="userSpaceOnUse" color-interpolation-filters="sRGB">
<feFlood flood-opacity="0" result="BackgroundImageFix"/>
<feColorMatrix in="SourceAlpha" type="matrix" values="0 0 0 0 0 0 0 0 0 0 0 0 0 0 0 0 0 0 127 0" result="hardAlpha"/>
<feOffset/>
<feGaussianBlur stdDeviation="2"/>
<feComposite in2="hardAlpha" operator="out"/>
<feColorMatrix type="matrix" values="0 0 0 0 0 0 0 0 0 0 0 0 0 0 0 0 0 0 0.35 0"/>
<feBlend mode="normal" in2="BackgroundImageFix" result="effect1_dropShadow_504_999"/>
<feBlend mode="normal" in="SourceGraphic" in2="effect1_dropShadow_504_999" result="shape"/>
</filter>
<filter id="filter2_d_504_999" x="190.75" y="58.25" width="15.5" height="15.5" filterUnits="userSpaceOnUse" color-interpolation-filters="sRGB">
<feFlood flood-opacity="0" result="BackgroundImageFix"/>
<feColorMatrix in="SourceAlpha" type="matrix" values="0 0 0 0 0 0 0 0 0 0 0 0 0 0 0 0 0 0 127 0" result="hardAlpha"/>
<feOffset/>
<feGaussianBlur stdDeviation="2"/>
<feComposite in2="hardAlpha" operator="out"/>
<feColorMatrix type="matrix" values="0 0 0 0 0 0 0 0 0 0 0 0 0 0 0 0 0 0 0.35 0"/>
<feBlend mode="normal" in2="BackgroundImageFix" result="effect1_dropShadow_504_999"/>
<feBlend mode="normal" in="SourceGraphic" in2="effect1_dropShadow_504_999" result="shape"/>
</filter>
<filter id="filter3_d_504_999" x="175.75" y="43.25" width="15.5" height="15.5" filterUnits="userSpaceOnUse" color-interpolation-filters="sRGB">
<feFlood flood-opacity="0" result="BackgroundImageFix"/>
<feColorMatrix in="SourceAlpha" type="matrix" values="0 0 0 0 0 0 0 0 0 0 0 0 0 0 0 0 0 0 127 0" result="hardAlpha"/>
<feOffset/>
<feGaussianBlur stdDeviation="2"/>
<feComposite in2="hardAlpha" operator="out"/>
<feColorMatrix type="matrix" values="0 0 0 0 0 0 0 0 0 0 0 0 0 0 0 0 0 0 0.35 0"/>
<feBlend mode="normal" in2="BackgroundImageFix" result="effect1_dropShadow_504_999"/>
<feBlend mode="normal" in="SourceGraphic" in2="effect1_dropShadow_504_999" result="shape"/>
</filter>
<filter id="filter4_d_504_999" x="168.25" y="28.25" width="15.5" height="15.5" filterUnits="userSpaceOnUse" color-interpolation-filters="sRGB">
<feFlood flood-opacity="0" result="BackgroundImageFix"/>
<feColorMatrix in="SourceAlpha" type="matrix" values="0 0 0 0 0 0 0 0 0 0 0 0 0 0 0 0 0 0 127 0" result="hardAlpha"/>
<feOffset/>
<feGaussianBlur stdDeviation="2"/>
<feComposite in2="hardAlpha" operator="out"/>
<feColorMatrix type="matrix" values="0 0 0 0 0 0 0 0 0 0 0 0 0 0 0 0 0 0 0.35 0"/>
<feBlend mode="normal" in2="BackgroundImageFix" result="effect1_dropShadow_504_999"/>
<feBlend mode="normal" in="SourceGraphic" in2="effect1_dropShadow_504_999" result="shape"/>
</filter>
<filter id="filter5_d_504_999" x="213.25" y="28.25" width="15.5" height="15.5" filterUnits="userSpaceOnUse" color-interpolation-filters="sRGB">
<feFlood flood-opacity="0" result="BackgroundImageFix"/>
<feColorMatrix in="SourceAlpha" type="matrix" values="0 0 0 0 0 0 0 0 0 0 0 0 0 0 0 0 0 0 127 0" result="hardAlpha"/>
<feOffset/>
<feGaussianBlur stdDeviation="2"/>
<feComposite in2="hardAlpha" operator="out"/>
<feColorMatrix type="matrix" values="0 0 0 0 0 0 0 0 0 0 0 0 0 0 0 0 0 0 0.35 0"/>
<feBlend mode="normal" in2="BackgroundImageFix" result="effect1_dropShadow_504_999"/>
<feBlend mode="normal" in="SourceGraphic" in2="effect1_dropShadow_504_999" result="shape"/>
</filter>
</defs>
</svg>
